<svg width="375" height="636" viewBox="0 0 375 636" fill="none" xmlns="http://www.w3.org/2000/svg">
<g clip-path="url(#clip0_235_879)">
<rect width="375" height="636" fill="#77579D"/>
<path d="M141.045 -529.01C10.8716 -493.841 -69.7058 -373.431 -39.0119 -260.12L62.8098 115.543C68.561 137.007 36.3145 151.869 21.5751 134.695L-345.88 -293.932C-389.416 -344.77 -465.168 -365.129 -537.697 -345.55C-636.705 -318.732 -698.096 -227.191 -674.672 -141.014L-479.937 577.686C-473.607 601.31 -511.74 615.29 -523.352 593.66L-930.875 -162.503C-949.169 -196.666 -993.053 -212.831 -1035.66 -201.271L-1513.9 -72.1123C-1577.75 -54.86 -1605.97 13.4699 -1567.54 58.2961L-731.582 1034.03C-674.289 1100.86 -574.886 1127.61 -479.564 1101.92C-349.39 1066.75 -268.776 946.479 -299.47 833.168L-466.08 218.194C-471.95 196.907 -439.585 181.868 -424.845 199.043L-57.3542 627.804C60.4416 765.377 317.851 645.62 271.438 474.886L120.71 -115.551C161.819 -106.021 206.924 -106.387 252.2 -118.519C382.373 -153.688 462.951 -274.098 432.293 -387.274C401.527 -500.854 271.219 -564.179 141.045 -529.01Z" fill="black" fill-opacity="0.2"/>
<rect width="377" height="303" fill="url(#paint0_linear_235_879)"/>
</g>
<defs>
<linearGradient id="paint0_linear_235_879" x1="188.5" y1="0" x2="188.5" y2="303" gradientUnits="userSpaceOnUse">
<stop stop-color="#6D33E5" stop-opacity="0.44"/>
<stop offset="1" stop-color="#6D33E5" stop-opacity="0"/>
</linearGradient>
<clipPath id="clip0_235_879">
<rect width="375" height="636" fill="white"/>
</clipPath>
</defs>
</svg>
